<svg width="22" height="25" viewBox="0 0 22 25" fill="none" xmlns="http://www.w3.org/2000/svg">
<path d="M7.97411 20.4954C7.97411 22.6973 6.18904 24.4824 3.98706 24.4824C1.78507 24.4824 0 22.6973 0 20.4954C0 18.2934 1.78507 16.5083 3.98706 16.5083C6.18904 16.5083 7.97411 18.2934 7.97411 20.4954Z" fill="#061C36"/>
<path d="M10.8221 4.47604C10.8221 6.00957 9.5789 7.25274 8.04538 7.25274C6.51185 7.25274 5.26868 6.00957 5.26868 4.47604C5.26868 2.94251 6.51185 1.69934 8.04538 1.69934C9.5789 1.69934 10.8221 2.94251 10.8221 4.47604Z" fill="#061C36"/>
<path d="M5.31495 3.97742H7.97418V20.6376H5.26868V4.11981L5.31495 3.97742Z" fill="#061C36"/>
<path d="M21.3595 18.2176C21.3595 20.4196 19.5744 22.2047 17.3724 22.2047C15.1704 22.2047 13.3854 20.4196 13.3854 18.2176C13.3854 16.0157 15.1704 14.2306 17.3724 14.2306C19.5744 14.2306 21.3595 16.0157 21.3595 18.2176Z" fill="#061C36"/>
<path d="M18.6537 1.69934H21.3592V18.3595H18.6537V1.69934Z" fill="#061C36"/>
<path d="M11.2848 3.63894C11.0896 2.25004 12.0573 0.965872 13.4462 0.770674L18.6225 0.0431966C20.0114 -0.152001 21.164 0.300194 21.3592 1.6891C21.3651 2.11628 21.3651 3.04183 21.3651 3.42043C21.0552 4.27664 20.2938 4.9373 19.3293 5.07285L14.1531 5.80033C12.7642 5.99553 11.48 5.02784 11.2848 3.63894Z" fill="#061C36"/>
</svg>
