<svg width="44" height="44" viewBox="0 0 44 44" fill="none" xmlns="http://www.w3.org/2000/svg">
<g id="Logo">
<path id="BG" d="M0 10C0 4.47715 4.47715 0 10 0H34C39.5228 0 44 4.47715 44 10V34C44 39.5228 39.5228 44 34 44H10C4.47715 44 0 39.5228 0 34V10Z" fill="#354863"/>
<g id="LogoLogo" filter="url(#filter0_i_470_1209)">
<circle id="Ellipse 4" cx="12.6732" cy="30.6149" r="3.98706" fill="#D4E3FF"/>
<circle id="Ellipse 5" cx="16.7315" cy="14.5955" r="2.7767" fill="#D4E3FF"/>
<path id="Rectangle 10" d="M14.001 14.097H16.6603V30.7572H13.9548V14.2394L14.001 14.097Z" fill="#D4E3FF"/>
<circle id="Ellipse 6" cx="26.0585" cy="28.3372" r="3.98706" fill="#D4E3FF"/>
<rect id="Rectangle 13" x="24.1705" y="10.6017" width="11.1061" height="4.91643" rx="2.45821" transform="rotate(-8 24.1705 10.6017)" fill="#D4E3FF"/>
<rect id="Rectangle 11" x="27.3398" y="11.8188" width="2.7055" height="16.6602" fill="#D4E3FF"/>
<path id="Rectangle 12" d="M19.971 13.7584C19.7758 12.3695 20.7434 11.0853 22.1323 10.8902L27.3086 10.1627C28.6975 9.96748 29.8502 10.4197 30.0454 11.8086C30.0512 12.2358 30.0512 13.1613 30.0512 13.5399C29.7413 14.3961 28.98 15.0568 28.0155 15.1923L22.8392 15.9198C21.4503 16.115 20.1662 15.1473 19.971 13.7584Z" fill="#D4E3FF"/>
</g>
</g>
<defs>
<filter id="filter0_i_470_1209" x="8.68616" y="9.37396" width="26.8488" height="29.228" filterUnits="userSpaceOnUse" color-interpolation-filters="sRGB">
<feFlood flood-opacity="0" result="BackgroundImageFix"/>
<feBlend mode="normal" in="SourceGraphic" in2="BackgroundImageFix" result="shape"/>
<feColorMatrix in="SourceAlpha" type="matrix" values="0 0 0 0 0 0 0 0 0 0 0 0 0 0 0 0 0 0 127 0" result="hardAlpha"/>
<feOffset dy="4"/>
<feGaussianBlur stdDeviation="2"/>
<feComposite in2="hardAlpha" operator="arithmetic" k2="-1" k3="1"/>
<feColorMatrix type="matrix" values="0 0 0 0 0 0 0 0 0 0 0 0 0 0 0 0 0 0 0.25 0"/>
<feBlend mode="normal" in2="shape" result="effect1_innerShadow_470_1209"/>
</filter>
</defs>
</svg>
