<svg width="36" height="36" viewBox="0 0 36 36" fill="none" xmlns="http://www.w3.org/2000/svg">
<g id="settings">
<mask id="mask0_466_1461" style="mask-type:alpha" maskUnits="userSpaceOnUse" x="0" y="0" width="36" height="36">
<rect id="Bounding box" x="0.317627" y="0.378784" width="35.2425" height="35.2425" fill="#FFFFFF"/>
</mask>
<g mask="url(#mask0_466_1461)">
<path id="settings_2" d="M16.2134 32.6844C15.5527 32.6844 14.9836 32.4641 14.5064 32.0236C14.0291 31.583 13.7416 31.0446 13.6437 30.4083L13.3133 27.9854C12.9951 27.863 12.6953 27.7162 12.4139 27.5448C12.1324 27.3735 11.8571 27.19 11.5879 26.9942L9.3118 27.9487C8.69995 28.2179 8.0881 28.2423 7.47625 28.0221C6.86441 27.8018 6.38716 27.4102 6.04453 26.8473L4.31912 23.837C3.97648 23.2741 3.87859 22.6745 4.02543 22.0382C4.17227 21.4019 4.50267 20.8757 5.01662 20.4596L6.9623 18.9912C6.93783 18.8199 6.92559 18.6547 6.92559 18.4956V17.5044C6.92559 17.3453 6.93783 17.1801 6.9623 17.0088L5.01662 15.5404C4.50267 15.1243 4.17227 14.5981 4.02543 13.9618C3.87859 13.3255 3.97648 12.7259 4.31912 12.163L6.04453 9.15268C6.38716 8.58978 6.86441 8.19819 7.47625 7.97793C8.0881 7.75766 8.69995 7.78214 9.3118 8.05135L11.5879 9.00583C11.8571 8.81004 12.1385 8.62649 12.4322 8.45517C12.7259 8.28385 13.0196 8.13701 13.3133 8.01464L13.6437 5.59172C13.7416 4.9554 14.0291 4.41697 14.5064 3.97644C14.9836 3.53591 15.5527 3.31564 16.2134 3.31564H19.6643C20.3251 3.31564 20.8941 3.53591 21.3713 3.97644C21.8486 4.41697 22.1361 4.9554 22.234 5.59172L22.5644 8.01464C22.8826 8.13701 23.1824 8.28385 23.4639 8.45517C23.7453 8.62649 24.0206 8.81004 24.2898 9.00583L26.5659 8.05135C27.1778 7.78214 27.7896 7.75766 28.4015 7.97793C29.0133 8.19819 29.4906 8.58978 29.8332 9.15268L31.5586 12.163C31.9012 12.7259 31.9991 13.3255 31.8523 13.9618C31.7054 14.5981 31.375 15.1243 30.8611 15.5404L28.9154 17.0088C28.9399 17.1801 28.9521 17.3453 28.9521 17.5044V18.4956C28.9521 18.6547 28.9277 18.8199 28.8787 18.9912L30.8244 20.4596C31.3383 20.8757 31.6687 21.4019 31.8156 22.0382C31.9624 22.6745 31.8645 23.2741 31.5219 23.837L29.7598 26.8473C29.4171 27.4102 28.9399 27.8018 28.328 28.0221C27.7162 28.2423 27.1043 28.2179 26.4925 27.9487L24.2898 26.9942C24.0206 27.19 23.7392 27.3735 23.4455 27.5448C23.1518 27.7162 22.8581 27.863 22.5644 27.9854L22.234 30.4083C22.1361 31.0446 21.8486 31.583 21.3713 32.0236C20.8941 32.4641 20.3251 32.6844 19.6643 32.6844H16.2134ZM16.4704 29.7475H19.3706L19.8845 25.8561C20.6432 25.6603 21.3469 25.3728 21.9954 24.9934C22.644 24.6141 23.2375 24.1552 23.7759 23.6168L27.4103 25.1219L28.842 22.6256L25.6849 20.2394C25.8072 19.8967 25.8929 19.5357 25.9418 19.1564C25.9908 18.7771 26.0153 18.3916 26.0153 18C26.0153 17.6084 25.9908 17.223 25.9418 16.8436C25.8929 16.4643 25.8072 16.1033 25.6849 15.7606L28.842 13.3744L27.4103 10.8781L23.7759 12.4199C23.2375 11.857 22.644 11.3859 21.9954 11.0066C21.3469 10.6272 20.6432 10.3397 19.8845 10.1439L19.4073 6.25252H16.5071L15.9932 10.1439C15.2345 10.3397 14.5309 10.6272 13.8823 11.0066C13.2337 11.3859 12.6403 11.8448 12.1018 12.3832L8.46745 10.8781L7.03572 13.3744L10.1929 15.7239C10.0705 16.091 9.98483 16.4581 9.93588 16.8253C9.88694 17.1924 9.86246 17.5839 9.86246 18C9.86246 18.3916 9.88694 18.7709 9.93588 19.138C9.98483 19.5052 10.0705 19.8723 10.1929 20.2394L7.03572 22.6256L8.46745 25.1219L12.1018 23.5801C12.6403 24.143 13.2337 24.6141 13.8823 24.9934C14.5309 25.3728 15.2345 25.6603 15.9932 25.8561L16.4704 29.7475ZM18.0123 23.1395C19.4318 23.1395 20.6432 22.6378 21.6467 21.6344C22.6501 20.631 23.1518 19.4195 23.1518 18C23.1518 16.5805 22.6501 15.3691 21.6467 14.3656C20.6432 13.3622 19.4318 12.8605 18.0123 12.8605C16.5683 12.8605 15.3507 13.3622 14.3595 14.3656C13.3684 15.3691 12.8728 16.5805 12.8728 18C12.8728 19.4195 13.3684 20.631 14.3595 21.6344C15.3507 22.6378 16.5683 23.1395 18.0123 23.1395Z" fill="#9CF1F3"/>
</g>
</g>
</svg>
