<svg width="49" height="49" viewBox="0 0 49 49" fill="none" xmlns="http://www.w3.org/2000/svg">
<mask id="mask0_549_6090" style="mask-type:alpha" maskUnits="userSpaceOnUse" x="0" y="0" width="49" height="49">
<rect x="0.790771" y="0.480103" width="48" height="48" fill="#D9D9D9"/>
</mask>
<g mask="url(#mask0_549_6090)">
<path d="M24.8123 27.3976L14.6668 37.5151C14.2625 37.9194 13.7727 38.1262 13.1973 38.1356C12.622 38.1449 12.1415 37.9307 11.7558 37.4931C11.3328 37.0887 11.125 36.6109 11.1323 36.0596C11.1393 35.5079 11.3545 35.0132 11.7778 34.5756L21.9018 24.4801L11.7558 14.3126C11.3328 13.9082 11.1213 13.4304 11.1213 12.8791C11.1213 12.3274 11.3328 11.8327 11.7558 11.3951C12.1415 10.9907 12.622 10.7934 13.1973 10.8031C13.7727 10.8124 14.2625 11.0192 14.6668 11.4236L24.8123 21.5411L34.9148 11.4236C35.3192 11.0192 35.809 10.8124 36.3843 10.8031C36.9597 10.7934 37.4402 10.9907 37.8258 11.3951C38.2488 11.8327 38.4567 12.3274 38.4493 12.8791C38.4423 13.4304 38.2438 13.9082 37.8538 14.3126L27.7298 24.4801L37.8538 34.5756C38.2438 34.9989 38.4423 35.4899 38.4493 36.0486C38.4567 36.6072 38.2488 37.0887 37.8258 37.4931C37.4402 37.9307 36.9597 38.1449 36.3843 38.1356C35.809 38.1262 35.3192 37.9194 34.9148 37.5151L24.8123 27.3976Z" fill="#DDE4E3"/>
</g>
</svg>
