<svg width="49" height="49" viewBox="0 0 49 49" fill="none" xmlns="http://www.w3.org/2000/svg">
<mask id="mask0_542_8255" style="mask-type:alpha" maskUnits="userSpaceOnUse" x="0" y="0" width="49" height="49">
<rect x="0.178711" y="0.648254" width="48" height="48" fill="#D9D9D9"/>
</mask>
<g mask="url(#mask0_542_8255)">
<path d="M19.1787 25.9872L36.6612 8.50474C37.0775 8.13374 37.5715 7.95658 38.1432 7.97324C38.7145 7.98991 39.2025 8.19041 39.6072 8.57474C40.0115 8.95908 40.2137 9.44541 40.2137 10.0337C40.2137 10.6217 40.0115 11.1012 39.6072 11.4722L20.6767 30.4807C20.2534 30.8851 19.7494 31.0872 19.1647 31.0872C18.5797 31.0872 18.1017 30.8851 17.7307 30.4807L8.75021 21.4722C8.34588 21.1052 8.14605 20.6317 8.15071 20.0517C8.15571 19.4714 8.36021 18.9724 8.76421 18.5547C9.16788 18.1837 9.65805 17.9982 10.2347 17.9982C10.8117 17.9982 11.306 18.1837 11.7177 18.5547L19.1787 25.9872ZM11.3417 41.5897C10.7224 41.5897 10.2169 41.3899 9.82521 40.9902C9.43321 40.5906 9.23721 40.0912 9.23721 39.4922C9.23721 38.9122 9.43321 38.4236 9.82521 38.0262C10.2169 37.6292 10.7224 37.4307 11.3417 37.4307H37.0657C37.65 37.4307 38.1432 37.6322 38.5452 38.0352C38.9472 38.4382 39.1482 38.9297 39.1482 39.5097C39.1482 40.1087 38.9472 40.6051 38.5452 40.9987C38.1432 41.3927 37.65 41.5897 37.0657 41.5897H11.3417Z" fill="#DDE4E3"/>
</g>
</svg>
