<svg width="49" height="49" viewBox="0 0 49 49" fill="none" xmlns="http://www.w3.org/2000/svg">
<mask id="mask0_542_8261" style="mask-type:alpha" maskUnits="userSpaceOnUse" x="0" y="0" width="49" height="49">
<rect x="0.56665" y="0.648254" width="48" height="48" fill="#D9D9D9"/>
</mask>
<g mask="url(#mask0_542_8261)">
<path d="M16.0732 34.6528H33.1102C33.5469 34.6528 33.9184 34.4974 34.2247 34.1868C34.5311 33.8764 34.6842 33.4996 34.6842 33.0563C34.6842 32.6133 34.5311 32.2356 34.2247 31.9233C33.9184 31.6109 33.5469 31.4548 33.1102 31.4548H16.0732C15.6039 31.4548 15.2159 31.6089 14.9092 31.9173C14.6026 32.2253 14.4492 32.6036 14.4492 33.0523C14.4492 33.5009 14.6026 33.8799 14.9092 34.1893C15.2159 34.4983 15.6039 34.6528 16.0732 34.6528ZM22.8712 22.3568L19.8537 19.3678C19.5247 19.0721 19.1432 18.9206 18.7092 18.9133C18.2752 18.9063 17.9126 19.0461 17.6212 19.3328C17.2879 19.6624 17.1212 20.0463 17.1212 20.4843C17.1212 20.9226 17.2857 21.2896 17.6147 21.5853L22.9687 26.9613C23.3474 27.3846 23.8289 27.5963 24.4132 27.5963C24.9976 27.5963 25.4981 27.3846 25.9147 26.9613L31.3687 21.5853C31.6677 21.2943 31.8164 20.9306 31.8147 20.4943C31.8131 20.0579 31.6652 19.6761 31.3712 19.3488C31.0406 19.0514 30.6629 18.9063 30.2382 18.9133C29.8139 18.9206 29.4444 19.0721 29.1297 19.3678L26.0687 22.3788V14.0678C26.0687 13.6311 25.9147 13.2596 25.6067 12.9533C25.2984 12.6469 24.9199 12.4938 24.4712 12.4938C24.0226 12.4938 23.6437 12.6469 23.3347 12.9533C23.0257 13.2596 22.8712 13.6311 22.8712 14.0678V22.3568ZM24.5477 45.5898C21.6867 45.5898 18.9782 45.0433 16.4222 43.9503C13.8662 42.8576 11.6409 41.3638 9.74624 39.4688C7.85124 37.5741 6.35741 35.3478 5.26474 32.7898C4.17174 30.2321 3.62524 27.5196 3.62524 24.6523C3.62524 21.7549 4.17274 19.0324 5.26774 16.4848C6.36241 13.9368 7.86208 11.7106 9.76674 9.80627C11.6711 7.90194 13.8952 6.40461 16.4392 5.31427C18.9832 4.22394 21.6829 3.67877 24.5382 3.67877C27.4389 3.67877 30.1699 4.22311 32.7312 5.31177C35.2922 6.40011 37.5202 7.89527 39.4152 9.79727C41.3106 11.6989 42.8046 13.9273 43.8972 16.4823C44.9899 19.0373 45.5362 21.7683 45.5362 24.6753C45.5362 27.5479 44.9911 30.2523 43.9007 32.7883C42.8104 35.3243 41.3131 37.5444 39.4087 39.4488C37.5044 41.3531 35.2771 42.8526 32.7267 43.9473C30.1767 45.0423 27.4504 45.5898 24.5477 45.5898ZM24.5602 41.4308C29.2019 41.4308 33.1606 39.7928 36.4362 36.5168C39.7116 33.2408 41.3492 29.2868 41.3492 24.6548C41.3492 20.0131 39.7137 16.0544 36.4427 12.7788C33.1714 9.50344 29.2102 7.86577 24.5592 7.86577C19.9412 7.86577 15.9909 9.50127 12.7082 12.7723C9.42558 16.0436 7.78424 20.0048 7.78424 24.6558C7.78424 29.2738 9.42225 33.2241 12.6982 36.5068C15.9742 39.7894 19.9282 41.4308 24.5602 41.4308Z" fill="#DDE4E3"/>
</g>
</svg>
