<svg width="49" height="49" viewBox="0 0 49 49" fill="none" xmlns="http://www.w3.org/2000/svg">
<mask id="mask0_542_8267" style="mask-type:alpha" maskUnits="userSpaceOnUse" x="0" y="0" width="49" height="49">
<rect x="0.790771" y="0.648254" width="48" height="48" fill="#D9D9D9"/>
</mask>
<g mask="url(#mask0_542_8267)">
<path d="M20.1844 45.1398C15.3987 44.0398 11.4799 41.5839 8.42787 37.7723C5.37553 33.9606 3.84937 29.5764 3.84937 24.6198C3.84937 19.7154 5.37553 15.3576 8.42787 11.5463C11.4799 7.7346 15.3987 5.27877 20.1844 4.17877C20.812 4.05977 21.3874 4.20727 21.9104 4.62127C22.4337 5.03494 22.6954 5.57227 22.6954 6.23327C22.6954 6.70427 22.5479 7.13927 22.2529 7.53827C21.9579 7.9376 21.5655 8.1706 21.0759 8.23727C17.2365 9.13727 14.0989 11.1163 11.6629 14.1743C9.22653 17.2323 8.00837 20.7141 8.00837 24.6198C8.00837 28.5778 9.22653 32.0823 11.6629 35.1333C14.0989 38.1839 17.2365 40.1498 21.0759 41.0308C21.5655 41.1308 21.9579 41.3804 22.2529 41.7798C22.5479 42.1791 22.6954 42.5976 22.6954 43.0353C22.6954 43.7483 22.442 44.3164 21.9354 44.7398C21.429 45.1628 20.8454 45.2961 20.1844 45.1398ZM29.4194 45.0898C28.7584 45.2751 28.1745 45.1573 27.6679 44.7363C27.1615 44.3153 26.9084 43.7483 26.9084 43.0353C26.9084 42.5976 27.0475 42.1744 27.3259 41.7658C27.6039 41.3571 27.9805 41.1121 28.4559 41.0308C29.3662 40.7974 30.275 40.5153 31.1824 40.1843C32.0894 39.8529 32.9502 39.3946 33.7649 38.8093C34.1359 38.5716 34.5674 38.4954 35.0594 38.5808C35.5514 38.6664 35.959 38.8614 36.2824 39.1658C36.772 39.6554 36.9789 40.2308 36.9029 40.8918C36.8269 41.5528 36.5272 42.0521 36.0039 42.3898C34.9852 43.0041 33.921 43.5409 32.8114 44.0003C31.702 44.4599 30.5714 44.8231 29.4194 45.0898ZM39.3364 36.1113C38.98 35.8069 38.7554 35.4181 38.6624 34.9448C38.5697 34.4718 38.6755 34.0236 38.9799 33.6003C39.4945 32.8193 39.9304 31.9834 40.2874 31.0928C40.6447 30.2021 40.94 29.2923 41.1734 28.3633C41.2734 27.9069 41.51 27.5349 41.8834 27.2473C42.2564 26.9596 42.7045 26.8158 43.2279 26.8158C43.9075 26.8158 44.4495 27.0689 44.8539 27.5753C45.2582 28.0819 45.3844 28.6658 45.2324 29.3268C44.9657 30.4934 44.599 31.6278 44.1324 32.7298C43.6657 33.8321 43.1324 34.8666 42.5324 35.8333C42.18 36.3896 41.6817 36.7023 41.0374 36.7713C40.3934 36.8399 39.8264 36.6199 39.3364 36.1113ZM43.2279 22.5028C42.7569 22.5028 42.318 22.3719 41.9114 22.1103C41.505 21.8486 41.2424 21.4729 41.1234 20.9833C40.9234 20.0876 40.6364 19.1898 40.2624 18.2898C39.8887 17.3898 39.4612 16.5324 38.9799 15.7178C38.6755 15.2948 38.5745 14.8419 38.6769 14.3593C38.7789 13.8766 38.9987 13.4758 39.3364 13.1568C39.793 12.6814 40.3554 12.4783 41.0234 12.5473C41.6917 12.6159 42.1947 12.9119 42.5324 13.4353C43.1324 14.4873 43.6525 15.5598 44.0929 16.6528C44.5335 17.7454 44.9134 18.8584 45.2324 19.9918C45.3844 20.6528 45.2582 21.2364 44.8539 21.7428C44.4495 22.2494 43.9075 22.5028 43.2279 22.5028ZM33.7929 10.4528C32.9452 9.9381 32.0714 9.4986 31.1714 9.13427C30.2714 8.7696 29.3662 8.4706 28.4559 8.23727C27.9662 8.1706 27.5859 7.9376 27.3149 7.53827C27.0439 7.13927 26.9084 6.70427 26.9084 6.23327C26.9084 5.57227 27.1615 5.0396 27.6679 4.63527C28.1745 4.23094 28.7584 4.07877 29.4194 4.17877C30.586 4.4641 31.7204 4.83177 32.8224 5.28177C33.9247 5.73177 34.9759 6.28077 35.9759 6.92877C36.5179 7.2851 36.8222 7.78444 36.8889 8.42677C36.9555 9.06877 36.7605 9.61794 36.3039 10.0743C35.9519 10.4643 35.5345 10.6973 35.0519 10.7733C34.5692 10.8493 34.1495 10.7424 33.7929 10.4528ZM26.5624 28.2833L31.4694 23.4048C31.836 23.0194 32.2385 22.8434 32.6769 22.8768C33.1152 22.9101 33.5177 23.0934 33.8844 23.4268C34.2364 23.7934 34.416 24.2173 34.4234 24.6983C34.4307 25.1793 34.2604 25.5771 33.9124 25.8918L26.2889 33.4873C25.8655 33.9439 25.3745 34.1723 24.8159 34.1723C24.2572 34.1723 23.785 33.9439 23.3994 33.4873L15.7039 25.8983C15.3372 25.5649 15.1575 25.1624 15.1649 24.6908C15.1722 24.2191 15.3592 23.7904 15.7259 23.4048C16.1112 23.0714 16.5314 22.9048 16.9864 22.9048C17.4417 22.9048 17.862 23.0714 18.2474 23.4048L23.0539 28.2833V16.0548C23.0539 15.5738 23.2242 15.1593 23.5649 14.8113C23.9055 14.4636 24.333 14.2898 24.8474 14.2898C25.3097 14.2898 25.7112 14.4636 26.0519 14.8113C26.3922 15.1593 26.5624 15.5738 26.5624 16.0548V28.2833Z" fill="#DDE4E3"/>
</g>
</svg>
