<svg width="41" height="41" viewBox="0 0 41 41" fill="none" xmlns="http://www.w3.org/2000/svg">
<mask id="mask0_539_3702" style="mask-type:alpha" maskUnits="userSpaceOnUse" x="0" y="0" width="41" height="41">
<rect x="0.831787" y="0.5" width="39.3364" height="40" fill="#D9D9D9"/>
</mask>
<g mask="url(#mask0_539_3702)">
<path d="M20.6562 35.5007L18.2729 33.334C15.506 30.8062 13.2186 28.6257 11.4106 26.7924C9.60251 24.959 8.1643 23.3132 7.09591 21.8549C6.02752 20.3965 5.28102 19.0562 4.85641 17.834C4.43179 16.6118 4.21948 15.3618 4.21948 14.084C4.21948 11.4729 5.08241 9.29236 6.80827 7.54236C8.53412 5.79236 10.6846 4.91736 13.2597 4.91736C14.6842 4.91736 16.0402 5.22291 17.3278 5.83403C18.6153 6.44514 19.7248 7.30625 20.6562 8.41736C21.5876 7.30625 22.6971 6.44514 23.9847 5.83403C25.2722 5.22291 26.6282 4.91736 28.0527 4.91736C30.6278 4.91736 32.7783 5.79236 34.5042 7.54236C36.23 9.29236 37.0929 11.4729 37.0929 14.084C37.0929 15.3618 36.8806 16.6118 36.456 17.834C36.0314 19.0562 35.2849 20.3965 34.2165 21.8549C33.1481 23.3132 31.7099 24.959 29.9019 26.7924C28.0938 28.6257 25.8064 30.8062 23.0395 33.334L20.6562 35.5007ZM20.6562 31.0007C23.2861 28.6118 25.4503 26.5632 27.1487 24.8549C28.8472 23.1465 30.1895 21.6604 31.1757 20.3965C32.1619 19.1326 32.8468 18.0076 33.2303 17.0215C33.6138 16.0354 33.8056 15.0562 33.8056 14.084C33.8056 12.4174 33.2577 11.0285 32.1619 9.91736C31.0661 8.80625 29.6964 8.25069 28.0527 8.25069C26.7652 8.25069 25.5735 8.61875 24.4778 9.35486C23.382 10.091 22.6286 11.0285 22.2177 12.1674L21.386 13.0551C20.9909 13.4768 20.3216 13.4768 19.9265 13.0551L19.0947 12.1674C18.6838 11.0285 17.9305 10.091 16.8347 9.35486C15.7389 8.61875 14.5472 8.25069 13.2597 8.25069C11.616 8.25069 10.2463 8.80625 9.1505 9.91736C8.05472 11.0285 7.50683 12.4174 7.50683 14.084C7.50683 15.0562 7.69859 16.0354 8.08211 17.0215C8.46564 18.0076 9.1505 19.1326 10.1367 20.3965C11.1229 21.6604 12.4652 23.1465 14.1637 24.8549C15.8622 26.5632 18.0263 28.6118 20.6562 31.0007Z" fill="#FFB4AB"/>
</g>
</svg>
