<svg width="49" height="49" viewBox="0 0 49 49" fill="none" xmlns="http://www.w3.org/2000/svg">
<mask id="mask0_541_8243" style="mask-type:alpha" maskUnits="userSpaceOnUse" x="0" y="0" width="49" height="49">
<rect x="0.634766" y="0.0988159" width="48" height="48" fill="#D9D9D9"/>
</mask>
<g mask="url(#mask0_541_8243)">
<path d="M31.0433 39.5903C29.8973 39.5903 28.9129 39.1837 28.0903 38.3703C27.2676 37.5573 26.8563 36.5683 26.8563 35.4033V12.7228C26.8563 11.6098 27.2676 10.6337 28.0903 9.79433C28.9129 8.95533 29.8973 8.53583 31.0433 8.53583H35.9893C37.1356 8.53583 38.1199 8.95533 38.9423 9.79433C39.7649 10.6337 40.1763 11.6098 40.1763 12.7228V35.4033C40.1763 36.5683 39.7649 37.5573 38.9423 38.3703C38.1199 39.1837 37.1356 39.5903 35.9893 39.5903H31.0433ZM13.2803 39.5903C12.1339 39.5903 11.1496 39.1837 10.3273 38.3703C9.5046 37.5573 9.09326 36.5683 9.09326 35.4033V12.7228C9.09326 11.6098 9.5046 10.6337 10.3273 9.79433C11.1496 8.95533 12.1339 8.53583 13.2803 8.53583H18.2263C19.3723 8.53583 20.3566 8.95533 21.1793 9.79433C22.0019 10.6337 22.4133 11.6098 22.4133 12.7228V35.4033C22.4133 36.5683 22.0019 37.5573 21.1793 38.3703C20.3566 39.1837 19.3723 39.5903 18.2263 39.5903H13.2803ZM31.0433 35.4033H35.9893V12.7228H31.0433V35.4033ZM13.2803 35.4033H18.2263V12.7228H13.2803V35.4033Z" fill="#DDE4E3"/>
</g>
</svg>
