<svg width="49" height="49" viewBox="0 0 49 49" fill="none" xmlns="http://www.w3.org/2000/svg">
<mask id="mask0_549_6102" style="mask-type:alpha" maskUnits="userSpaceOnUse" x="0" y="0" width="49" height="49">
<rect x="0.178711" y="0.480103" width="48" height="48" fill="#D9D9D9"/>
</mask>
<g mask="url(#mask0_549_6102)">
<path d="M13.6983 27.0756C14.4296 27.0756 15.0483 26.823 15.5543 26.3176C16.0606 25.8123 16.3138 25.1985 16.3138 24.4761C16.3138 23.7541 16.0591 23.1416 15.5498 22.6386C15.0405 22.136 14.422 21.8846 13.6943 21.8846C12.9666 21.8846 12.3513 22.1373 11.8483 22.6426C11.3453 23.148 11.0938 23.7618 11.0938 24.4841C11.0938 25.2061 11.3471 25.8186 11.8538 26.3216C12.3601 26.8243 12.975 27.0756 13.6983 27.0756ZM24.1828 27.0756C24.9048 27.0756 25.5173 26.823 26.0203 26.3176C26.523 25.8123 26.7743 25.1985 26.7743 24.4761C26.7743 23.7541 26.5216 23.1416 26.0163 22.6386C25.511 22.136 24.8971 21.8846 24.1748 21.8846C23.4528 21.8846 22.8403 22.1373 22.3373 22.6426C21.8346 23.148 21.5833 23.7618 21.5833 24.4841C21.5833 25.2061 21.836 25.8186 22.3413 26.3216C22.8466 26.8243 23.4605 27.0756 24.1828 27.0756ZM34.6133 27.0756C35.341 27.0756 35.9563 26.823 36.4593 26.3176C36.9623 25.8123 37.2138 25.1985 37.2138 24.4761C37.2138 23.7541 36.9605 23.1416 36.4538 22.6386C35.9475 22.136 35.3326 21.8846 34.6093 21.8846C33.878 21.8846 33.2593 22.1373 32.7533 22.6426C32.247 23.148 31.9938 23.7618 31.9938 24.4841C31.9938 25.2061 32.2485 25.8186 32.7578 26.3216C33.2671 26.8243 33.8856 27.0756 34.6133 27.0756ZM24.1733 45.4216C21.288 45.4216 18.5711 44.8751 16.0228 43.7821C13.4745 42.6895 11.253 41.1956 9.3583 39.3006C7.4633 37.406 5.96947 35.1823 4.8768 32.6296C3.7838 30.0773 3.2373 27.3538 3.2373 24.4591C3.2373 21.5678 3.7848 18.851 4.8798 16.3086C5.97447 13.766 7.47414 11.5425 9.3788 9.63812C11.2831 7.73379 13.5046 6.23645 16.0433 5.14612C18.5823 4.05579 21.293 3.51062 24.1753 3.51062C27.07 3.51062 29.7951 4.05496 32.3508 5.14362C34.9068 6.23196 37.1323 7.72712 39.0273 9.62912C40.9226 11.5308 42.4166 13.7591 43.5093 16.3141C44.602 18.8691 45.1483 21.5958 45.1483 24.4941C45.1483 27.3911 44.6031 30.1036 43.5128 32.6316C42.4225 35.16 40.9251 37.3731 39.0208 39.2711C37.1165 41.1695 34.8891 42.6691 32.3388 43.7701C29.7888 44.8711 27.067 45.4216 24.1733 45.4216ZM24.1973 41.2626C28.8223 41.2626 32.7726 39.6246 36.0483 36.3486C39.3236 33.0726 40.9613 29.1103 40.9613 24.4616C40.9613 19.8366 39.3288 15.8863 36.0638 12.6106C32.7991 9.33529 28.835 7.69762 24.1713 7.69762C19.5533 7.69762 15.603 9.33012 12.3203 12.5951C9.03764 15.8598 7.39631 19.824 7.39631 24.4876C7.39631 29.1056 9.03431 33.056 12.3103 36.3386C15.5863 39.6213 19.5486 41.2626 24.1973 41.2626Z" fill="#DDE4E3"/>
</g>
</svg>
