<svg width="49" height="49" viewBox="0 0 49 49" fill="none" xmlns="http://www.w3.org/2000/svg">
<mask id="mask0_541_8237" style="mask-type:alpha" maskUnits="userSpaceOnUse" x="0" y="0" width="49" height="49">
<rect x="0.474854" y="0.0988159" width="48" height="48" fill="#D9D9D9"/>
</mask>
<g mask="url(#mask0_541_8237)">
<path d="M15.5488 35.6903V12.1573C15.5488 11.5583 15.7588 11.0615 16.1788 10.6668C16.5988 10.2722 17.0968 10.0748 17.6728 10.0748C17.8105 10.0748 17.9792 10.0962 18.1788 10.1388C18.3788 10.1818 18.5757 10.2527 18.7693 10.3513L37.2703 22.2008C37.601 22.4008 37.8525 22.6563 38.0248 22.9673C38.1972 23.278 38.2833 23.6063 38.2833 23.9523C38.2833 24.2983 38.193 24.6255 38.0123 24.9338C37.8317 25.2425 37.5843 25.4802 37.2703 25.6468L18.7693 37.4963C18.5743 37.6283 18.3725 37.711 18.1638 37.7443C17.9552 37.7777 17.7833 37.7943 17.6483 37.7943C17.0817 37.7943 16.59 37.6038 16.1733 37.2228C15.757 36.8418 15.5488 36.331 15.5488 35.6903ZM19.7073 31.9378L32.3268 23.9488L19.7073 15.9598V31.9378Z" fill="#DDE4E3"/>
</g>
</svg>
