<svg width="49" height="49" viewBox="0 0 49 49" fill="none" xmlns="http://www.w3.org/2000/svg">
<mask id="mask0_552_6118" style="mask-type:alpha" maskUnits="userSpaceOnUse" x="0" y="0" width="49" height="49">
<rect x="0.56665" y="0.480103" width="48" height="48" fill="#D9D9D9"/>
</mask>
<g mask="url(#mask0_552_6118)">
<path d="M32.7587 41.4216C31.0331 41.4216 29.5534 40.8127 28.3197 39.5951C27.0857 38.3774 26.4687 36.8861 26.4687 35.1211C26.4687 33.3561 27.0659 31.8689 28.2602 30.6596C29.4542 29.4499 30.9042 28.8451 32.6102 28.8451C33.0302 28.8451 33.4312 28.8862 33.8132 28.9686C34.1949 29.0509 34.5621 29.1721 34.9147 29.3321V13.8431C34.9147 13.1507 35.1286 12.5936 35.5562 12.1716C35.9839 11.7496 36.5677 11.5386 37.3077 11.5386H43.2317C43.8917 11.5386 44.4409 11.7594 44.8792 12.2011C45.3172 12.6424 45.5362 13.2087 45.5362 13.9001C45.5362 14.6177 45.3201 15.1801 44.8877 15.5871C44.4551 15.9941 43.9031 16.1976 43.2317 16.1976H39.0517V35.1801C39.0517 36.9341 38.4294 38.4127 37.1847 39.6161C35.9404 40.8197 34.4651 41.4216 32.7587 41.4216ZM7.65174 34.9151C7.07841 34.9151 6.59741 34.7186 6.20874 34.3256C5.81974 33.9326 5.62524 33.4429 5.62524 32.8566C5.62524 32.2699 5.81691 31.7862 6.20024 31.4056C6.58324 31.0249 7.06708 30.8346 7.65174 30.8346H19.4647C20.0354 30.8346 20.5204 31.0311 20.9197 31.4241C21.3191 31.8171 21.5187 32.3141 21.5187 32.9151C21.5187 33.5017 21.3219 33.9817 20.9282 34.3551C20.5346 34.7284 20.0467 34.9151 19.4647 34.9151H7.65174ZM7.65174 25.3346C7.07841 25.3346 6.59741 25.1281 6.20874 24.7151C5.81974 24.3024 5.62524 23.8016 5.62524 23.2126C5.62524 22.5972 5.81691 22.0992 6.20024 21.7186C6.58324 21.3379 7.06708 21.1476 7.65174 21.1476H27.6102C28.1922 21.1476 28.6801 21.3459 29.0737 21.7426C29.4677 22.1396 29.6647 22.6404 29.6647 23.2451C29.6647 23.8497 29.4749 24.3491 29.0952 24.7431C28.7159 25.1374 28.2209 25.3346 27.6102 25.3346H7.65174ZM7.65174 15.6476C7.07841 15.6476 6.59741 15.4511 6.20874 15.0581C5.81974 14.6651 5.62524 14.1762 5.62524 13.5916C5.62524 13.0066 5.81691 12.5182 6.20024 12.1266C6.58324 11.7346 7.06708 11.5386 7.65174 11.5386H27.6102C28.1922 11.5386 28.6801 11.7371 29.0737 12.1341C29.4677 12.5311 29.6647 13.0262 29.6647 13.6196C29.6647 14.2252 29.4749 14.7146 29.0952 15.0876C28.7159 15.4609 28.2209 15.6476 27.6102 15.6476H7.65174Z" fill="#DDE4E3"/>
</g>
</svg>
