<svg width="41" height="41" viewBox="0 0 41 41" fill="none" xmlns="http://www.w3.org/2000/svg">
<mask id="mask0_539_3715" style="mask-type:alpha" maskUnits="userSpaceOnUse" x="0" y="0" width="41" height="41">
<rect x="0.168213" y="0.5" width="40" height="40" fill="#D9D9D9"/>
</mask>
<g mask="url(#mask0_539_3715)">
<path d="M10.7064 32.409L12.739 34.4416C13.076 34.7629 13.2444 35.1515 13.2444 35.6074C13.2444 36.0633 13.077 36.4478 12.7421 36.761C12.4163 37.0862 12.027 37.2577 11.5741 37.2755C11.1212 37.2933 10.7402 37.1337 10.431 36.7967L5.60855 31.9742C5.43474 31.8385 5.30313 31.6581 5.21371 31.433C5.1243 31.2079 5.07959 30.9743 5.07959 30.7322C5.07959 30.518 5.1243 30.3001 5.21371 30.0787C5.30313 29.8573 5.43474 29.6788 5.60855 29.543L10.431 24.7206C10.741 24.3836 11.1307 24.226 11.6001 24.2477C12.0695 24.2695 12.4563 24.4271 12.7605 24.7206C13.0901 25.0575 13.2501 25.4609 13.2406 25.9307C13.2311 26.4005 13.0717 26.7743 12.7625 27.0521L10.7064 29.1083H29.3423V24.0648C29.3423 23.6256 29.503 23.2392 29.8245 22.9057C30.1459 22.5721 30.5415 22.4054 31.0111 22.4054C31.4529 22.4054 31.8353 22.5721 32.1584 22.9057C32.4814 23.2392 32.643 23.6256 32.643 24.0648V28.9199C32.643 29.8912 32.3043 30.7155 31.6269 31.3929C30.9495 32.0703 30.1252 32.409 29.1538 32.409L10.7064 32.409ZM29.672 12.0322H11.018V17.0992C11.018 17.5662 10.8557 17.9595 10.531 18.2791C10.2064 18.5988 9.82084 18.7587 9.37434 18.7587C8.90006 18.7587 8.50531 18.5988 8.19009 18.2791C7.87487 17.9595 7.71726 17.5662 7.71726 17.0992V12.2206C7.71726 11.2771 8.05363 10.4597 8.72638 9.7684C9.39916 9.07712 10.218 8.73148 11.1828 8.73148H29.672L27.6393 6.6989C27.2867 6.42112 27.1143 6.05427 27.1221 5.59836C27.13 5.14244 27.2984 4.74433 27.6273 4.40402C27.9358 4.06375 28.3192 3.89134 28.7777 3.88682C29.2362 3.88229 29.6261 4.03462 29.9473 4.34381L34.7698 9.16627C34.9244 9.35116 35.0551 9.54857 35.162 9.75848C35.2689 9.96843 35.3223 10.1896 35.3223 10.4219C35.3223 10.67 35.2689 10.8971 35.162 11.1033C35.0551 11.3095 34.9244 11.49 34.7698 11.6446L29.9473 16.467C29.6085 16.7883 29.2052 16.9492 28.7373 16.9499C28.2694 16.9505 27.8926 16.782 27.607 16.4444C27.2847 16.1068 27.1213 15.7101 27.1169 15.2541C27.1126 14.7982 27.2867 14.4096 27.6393 14.0884L29.672 12.0322Z" fill="#DDE4E3"/>
</g>
</svg>
