<svg width="41" height="41" viewBox="0 0 41 41" fill="none" xmlns="http://www.w3.org/2000/svg">
<mask id="mask0_539_3705" style="mask-type:alpha" maskUnits="userSpaceOnUse" x="0" y="0" width="41" height="41">
<rect x="0.168213" y="0.5" width="40" height="40" fill="#D9D9D9"/>
</mask>
<g mask="url(#mask0_539_3705)">
<path d="M7.97803 30.1036V10.8554C7.97803 10.3829 8.14593 9.9794 8.48174 9.64501C8.81751 9.31063 9.2366 9.14343 9.73899 9.14343C10.2293 9.14343 10.636 9.31063 10.959 9.64501C11.2821 9.9794 11.4437 10.3829 11.4437 10.8554V30.1036C11.4437 30.6039 11.2797 31.0213 10.9517 31.3557C10.6238 31.6901 10.2147 31.8573 9.72436 31.8573C9.22197 31.8573 8.80532 31.6901 8.4744 31.3557C8.14349 31.0213 7.97803 30.6039 7.97803 30.1036ZM29.6302 29.9551L18.0016 21.9152C17.748 21.7763 17.5647 21.572 17.4518 21.3023C17.3389 21.0326 17.2824 20.7653 17.2824 20.5003C17.2824 20.2354 17.3389 19.9681 17.4518 19.6984C17.5647 19.4287 17.748 19.2105 18.0016 19.0438L29.6302 11.0456C29.7848 10.9466 29.9512 10.8623 30.1294 10.7929C30.3075 10.7234 30.4799 10.6887 30.6466 10.6887C31.0983 10.6887 31.4965 10.8577 31.8413 11.1955C32.1861 11.5334 32.3585 11.949 32.3585 12.4424V28.5583C32.3585 29.0517 32.1861 29.4604 31.8413 29.7844C31.4965 30.1083 31.0983 30.2703 30.6466 30.2703C30.4799 30.2703 30.3075 30.2425 30.1294 30.187C29.9512 30.1314 29.7848 30.0541 29.6302 29.9551ZM28.8929 25.2413V15.7594L22.0379 20.5003L28.8929 25.2413Z" fill="#DDE4E3"/>
</g>
</svg>
