<svg width="41" height="41" viewBox="0 0 41 41" fill="none" xmlns="http://www.w3.org/2000/svg">
<mask id="mask0_539_3712" style="mask-type:alpha" maskUnits="userSpaceOnUse" x="0" y="0" width="41" height="41">
<rect x="0.168213" y="0.5" width="40" height="40" fill="#D9D9D9"/>
</mask>
<g mask="url(#mask0_539_3712)">
<path d="M28.8929 30.1036V10.8554C28.8929 10.3829 29.0569 9.9794 29.3848 9.64501C29.7128 9.31063 30.1358 9.14343 30.6539 9.14343C31.1285 9.14343 31.5312 9.31063 31.8622 9.64501C32.1931 9.9794 32.3585 10.3829 32.3585 10.8554V30.1036C32.3585 30.6039 32.1906 31.0213 31.8548 31.3557C31.519 31.6901 31.1138 31.8573 30.6392 31.8573C30.1212 31.8573 29.7006 31.6901 29.3775 31.3557C29.0544 31.0213 28.8929 30.6039 28.8929 30.1036ZM7.97803 28.5583V12.4424C7.97803 11.949 8.15043 11.5334 8.49524 11.1955C8.84004 10.8577 9.25218 10.6887 9.73165 10.6887C9.87054 10.6887 10.0291 10.7234 10.2072 10.7929C10.3854 10.8623 10.5517 10.9466 10.7063 11.0456L22.3349 19.0438C22.5886 19.2105 22.7788 19.4287 22.9056 19.6984C23.0324 19.9681 23.0958 20.2354 23.0958 20.5003C23.0958 20.7653 23.0324 21.0326 22.9056 21.3023C22.7788 21.572 22.5886 21.7763 22.3349 21.9152L10.7063 29.9551C10.5517 30.0541 10.3854 30.1314 10.2072 30.187C10.0291 30.2425 9.87054 30.2703 9.73165 30.2703C9.25218 30.2703 8.84004 30.1083 8.49524 29.7844C8.15043 29.4604 7.97803 29.0517 7.97803 28.5583ZM11.4437 25.2413L18.2987 20.5003L11.4437 15.7594V25.2413Z" fill="#DDE4E3"/>
</g>
</svg>
